# xmcd
# 
# Track frame offsets:
#     150
#     18503
#     36123
#     51766
#     67848
#     84067
#     99624
#     113146
#     126873
#     143687
#     161879
#     180032
#     194502
#     210385
#     228329
#     243113
#     256310
#     273020
#     287245
#     302146
#     318487
#     334614
# 
# Disc length: 4655
# 
# Revision: 5
# Processed by: cddbd v1.5.2PL0 Copyright (c) Steve Scherf et al.
# Submitted via: fre:ac v1.0.31
# 
DISCID=25122d16
DTITLE=Various Artist - Bääärenstark!!! Hits 2017 - die erste - CD 1
DYEAR=2016
DGENRE=Schlager
TTITLE0=Vanessa Mai - Ohne Dich
TTITLE1=Roland Kaiser - Halt Mich Noch Einmal Fest
TTITLE2=Andrea Berg - Ich Werde Lächeln Wenn Du Gehst
TTITLE3=Nik P. - Lass Uns Unendlich Sein
TTITLE4=Matthias Reim - Das Lied
TTITLE5=Beatrice Egli - Fliegen
TTITLE6=Maite Kelly - Das Volle Programm
TTITLE7=Howard Carpendale - Das Ist Unsere Zeit
TTITLE8=Ute Freudenberg and Christian Lais - Leben
TTITLE9=Mitch Keller - Zuhause (Ich Bleib Bei Dir)
TTITLE10=Feuerherz - Ein Lied Auf Das Leben
TTITLE11=Christin Stark - Roter Regen
TTITLE12=Mary Roos - Die Kleinen Dinge
TTITLE13=Brunner and Stelzer - Für Den Moment
TTITLE14=Jenny Frankhauser - Die Zeit Steht Still
TTITLE15=Die Cappuccinos - Oh Magdalena
TTITLE16=Laura Wilde - Blumen Im Asphalt
TTITLE17=Diana and Marco - Das Glück Lehnt An Der Tür
TTITLE18=Jens Bogner - Alles Ist Anders
TTITLE19=Julia Kollat - Unsterblich
TTITLE20=Münchener Freiheit - Schwerelos
TTITLE21=Linda Hesse - Nein
EXTD=
EXTT0=
EXTT1=
EXTT2=
EXTT3=
EXTT4=
EXTT5=
EXTT6=
EXTT7=
EXTT8=
EXTT9=
EXTT10=
EXTT11=
EXTT12=
EXTT13=
EXTT14=
EXTT15=
EXTT16=
EXTT17=
EXTT18=
EXTT19=
EXTT20=
EXTT21=
PLAYORDER=
